<svg width="512" height="512" viewBox="0 0 512 512" fill="none" xmlns="http://www.w3.org/2000/svg">
  <defs>
    <linearGradient id="bg" x1="70" y1="28" x2="446" y2="486" gradientUnits="userSpaceOnUse">
      <stop stop-color="#FFFFFF"/>
      <stop offset="1" stop-color="#EDF4FC"/>
    </linearGradient>
    <linearGradient id="panel" x1="238" y1="88" x2="410" y2="310" gradientUnits="userSpaceOnUse">
      <stop stop-color="#101828"/>
      <stop offset="1" stop-color="#172338"/>
    </linearGradient>
  </defs>
  <rect x="20" y="20" width="472" height="472" rx="108" fill="url(#bg)" stroke="#D8E3F1" stroke-width="2"/>
  <rect x="64" y="84" width="14" height="344" rx="7" fill="#2763FF"/>
  <rect x="108" y="100" width="96" height="36" rx="16" fill="#0F1728"/>
  <rect x="108" y="150" width="96" height="36" rx="16" fill="#0F1728" opacity="0.86"/>
  <rect x="108" y="200" width="96" height="122" rx="28" fill="#0F1728"/>
  <rect x="228" y="96" width="196" height="214" rx="34" fill="url(#panel)"/>
  <rect x="248" y="116" width="72" height="16" rx="8" fill="#2B77FF" opacity="0.82"/>
  <rect x="248" y="152" width="72" height="56" rx="18" fill="#1E2D49"/>
  <rect x="336" y="152" width="68" height="56" rx="18" fill="#1E2D49"/>
  <rect x="248" y="224" width="72" height="56" rx="18" fill="#1E2D49"/>
  <rect x="336" y="224" width="68" height="56" rx="18" fill="#1E2D49"/>
  <rect x="108" y="346" width="316" height="78" rx="28" fill="#F7FAFE" stroke="#D8E3F1" stroke-width="2"/>
  <rect x="128" y="366" width="86" height="14" rx="7" fill="#2763FF" opacity="0.22"/>
  <rect x="128" y="390" width="164" height="12" rx="6" fill="#8392A7" opacity="0.42"/>
  <circle cx="384" cy="385" r="20" fill="#2763FF"/>
  <path d="M376 385H392M384 377V393" stroke="white" stroke-width="4" stroke-linecap="round"/>
</svg>
