<svg width="64" height="64" viewBox="0 0 64 64" fill="none" xmlns="http://www.w3.org/2000/svg">
  <defs>
    <linearGradient id="bg" x1="6" y1="5" x2="58" y2="60" gradientUnits="userSpaceOnUse">
      <stop stop-color="#FFFFFF"/>
      <stop offset="1" stop-color="#EAF2FC"/>
    </linearGradient>
    <linearGradient id="panel" x1="30" y1="13" x2="49" y2="37" gradientUnits="userSpaceOnUse">
      <stop stop-color="#101828"/>
      <stop offset="1" stop-color="#172338"/>
    </linearGradient>
  </defs>
  <rect x="3" y="3" width="58" height="58" rx="16" fill="url(#bg)" stroke="#D8E3F1" stroke-width="2"/>
  <rect x="10" y="13" width="4" height="38" rx="2" fill="#2763FF"/>
  <rect x="19" y="15" width="10" height="5" rx="2.5" fill="#0F1728"/>
  <rect x="19" y="24" width="10" height="5" rx="2.5" fill="#0F1728" opacity="0.84"/>
  <rect x="19" y="33" width="10" height="12" rx="4" fill="#0F1728"/>
  <rect x="33" y="14" width="18" height="22" rx="5" fill="url(#panel)"/>
  <rect x="36" y="18" width="7" height="2.5" rx="1.25" fill="#2B77FF"/>
  <rect x="36" y="24" width="6.5" height="6" rx="2" fill="#22314D"/>
  <rect x="44.5" y="24" width="4.5" height="6" rx="2" fill="#22314D"/>
  <rect x="19" y="49" width="32" height="7" rx="3.5" fill="#F7FAFE" stroke="#D8E3F1" stroke-width="1.5"/>
  <circle cx="47" cy="41" r="5.5" fill="#2763FF"/>
  <path d="M47 38.5V43.5M44.5 41H49.5" stroke="white" stroke-width="1.75" stroke-linecap="round"/>
</svg>
